<svg width="41" height="40" viewBox="0 0 41 40" fill="none" xmlns="http://www.w3.org/2000/svg">
<path fill-rule="evenodd" clip-rule="evenodd" d="M11.6368 16.3133C11.961 16.3993 12.2373 16.6087 12.4052 16.8955C12.573 17.1824 12.6186 17.5233 12.5319 17.8433C12.0996 19.4354 12.1555 21.1182 12.6924 22.679C13.2293 24.2397 14.2231 25.6083 15.5482 26.6116C16.8734 27.615 18.4702 28.208 20.1369 28.3157C21.8035 28.4233 23.4651 28.0409 24.9115 27.2167C25.0556 27.1346 25.2147 27.0813 25.3798 27.0599C25.5448 27.0385 25.7124 27.0494 25.8732 27.092C26.0339 27.1346 26.1846 27.208 26.3166 27.308C26.4486 27.408 26.5594 27.5327 26.6426 27.675C26.7257 27.8172 26.7797 27.9743 26.8014 28.1371C26.823 28.3 26.812 28.4654 26.7689 28.6241C26.7257 28.7827 26.6514 28.9314 26.55 29.0617C26.4487 29.1919 26.3223 29.3012 26.1781 29.3833C24.2976 30.4541 22.1376 30.9507 19.9712 30.8103C17.8048 30.6699 15.7292 29.8989 14.0067 28.5945C12.2843 27.2902 10.9924 25.5113 10.2943 23.4825C9.59617 21.4538 9.52324 19.2663 10.0847 17.1967C10.1278 17.0381 10.2022 16.8894 10.3035 16.7592C10.4048 16.629 10.5312 16.5197 10.6753 16.4377C10.8194 16.3556 10.9785 16.3024 11.1435 16.2811C11.3085 16.2598 11.4761 16.2707 11.6368 16.3133ZM15.2003 10.6167C17.0807 9.54497 19.241 9.04769 21.4078 9.18771C23.5746 9.32773 25.6507 10.0988 27.3734 11.4033C29.0961 12.7078 30.3881 14.4872 31.0859 16.5164C31.7838 18.5457 31.8561 20.7335 31.2938 22.8033C31.2069 23.1238 30.9945 23.3971 30.7035 23.563C30.4124 23.729 30.0664 23.7741 29.7417 23.6883C29.4169 23.6026 29.14 23.393 28.9718 23.1058C28.8036 22.8185 28.758 22.4771 28.8449 22.1567C29.276 20.5649 29.2194 18.8828 28.6822 17.3229C28.1451 15.7629 27.1515 14.395 25.827 13.3919C24.5025 12.3889 22.9064 11.7958 21.2405 11.6875C19.5745 11.5791 17.9134 11.9605 16.467 12.7833C16.1759 12.9491 15.8299 12.9939 15.5053 12.908C15.1806 12.822 14.9039 12.6123 14.7359 12.325C14.5679 12.0377 14.5225 11.6963 14.6096 11.3759C14.6967 11.0555 14.9092 10.7824 15.2003 10.6167Z" fill="#898A8D"/>
<path fill-rule="evenodd" clip-rule="evenodd" d="M10.083 15.7833C10.3205 15.5492 10.6424 15.4177 10.9781 15.4177C11.3138 15.4177 11.6357 15.5492 11.8732 15.7833L16.0954 19.95C16.2199 20.0644 16.3197 20.2024 16.3889 20.3557C16.4582 20.5091 16.4954 20.6746 16.4984 20.8424C16.5014 21.0103 16.4701 21.177 16.4064 21.3326C16.3427 21.4883 16.2479 21.6297 16.1276 21.7484C16.0073 21.8671 15.864 21.9606 15.7063 22.0235C15.5486 22.0864 15.3797 22.1172 15.2096 22.1143C15.0395 22.1113 14.8718 22.0746 14.7164 22.0063C14.561 21.9379 14.4212 21.8394 14.3052 21.7166L10.9781 18.4333L7.651 21.7166C7.41088 21.9374 7.09329 22.0576 6.76513 22.0519C6.43698 22.0462 6.12389 21.915 5.89181 21.686C5.65974 21.457 5.5268 21.148 5.52101 20.8242C5.51522 20.5003 5.63703 20.1869 5.86077 19.95L10.083 15.7833ZM25.283 18.2833C25.5205 18.0492 25.8424 17.9177 26.1781 17.9177C26.5138 17.9177 26.8357 18.0492 27.0732 18.2833L30.4003 21.5666L33.7274 18.2833C33.8434 18.1605 33.9832 18.062 34.1386 17.9937C34.294 17.9253 34.4617 17.8886 34.6318 17.8856C34.8019 17.8827 34.9708 17.9136 35.1285 17.9764C35.2863 18.0393 35.4295 18.1329 35.5498 18.2516C35.6701 18.3703 35.7649 18.5116 35.8286 18.6673C35.8923 18.8229 35.9236 18.9897 35.9206 19.1575C35.9176 19.3253 35.8804 19.4909 35.8112 19.6442C35.7419 19.7975 35.6421 19.9355 35.5177 20.05L31.2954 24.2166C31.0579 24.4507 30.736 24.5822 30.4003 24.5822C30.0647 24.5822 29.7427 24.4507 29.5052 24.2166L25.283 20.05C25.0458 19.8156 24.9126 19.4979 24.9126 19.1666C24.9126 18.8354 25.0458 18.5177 25.283 18.2833Z" fill="#898A8D"/>
</svg>
