<svg width="90" height="90" viewBox="0 0 90 90" fill="none" xmlns="http://www.w3.org/2000/svg">
<rect width="90" height="90" rx="20" fill="#007AFF"/>
<path fill-rule="evenodd" clip-rule="evenodd" d="M28.0266 37.5875C28.6344 37.7487 29.1526 38.1413 29.4673 38.6792C29.782 39.2171 29.8675 39.8562 29.7049 40.4563C28.8944 43.4414 28.9991 46.5967 30.0058 49.5231C31.0125 52.4495 32.876 55.0156 35.3606 56.8969C37.8452 58.7781 40.8393 59.89 43.9642 60.0919C47.0892 60.2938 50.2046 59.5767 52.9166 58.0313C53.1869 57.8774 53.4853 57.7775 53.7947 57.7374C54.1041 57.6973 54.4185 57.7178 54.7199 57.7976C55.0213 57.8774 55.3038 58.015 55.5513 58.2025C55.7988 58.3901 56.0065 58.6239 56.1624 58.8907C56.3184 59.1574 56.4195 59.4519 56.4602 59.7572C56.5008 60.0625 56.4801 60.3728 56.3992 60.6702C56.3184 60.9676 56.1789 61.2464 55.9889 61.4907C55.7988 61.735 55.5619 61.9399 55.2916 62.0938C51.7657 64.1016 47.7157 65.0327 43.6536 64.7694C39.5916 64.5062 35.6998 63.0604 32.4702 60.6148C29.2407 58.1693 26.8183 54.8337 25.5094 51.0298C24.2004 47.2259 24.0637 43.1244 25.1164 39.2438C25.1972 38.9464 25.3366 38.6677 25.5267 38.4235C25.7167 38.1793 25.9536 37.9745 26.2238 37.8207C26.4941 37.6669 26.7924 37.5671 27.1017 37.5271C27.411 37.4871 27.7253 37.5076 28.0266 37.5875ZM34.7083 26.9063C38.234 24.8969 42.2844 23.9645 46.3472 24.227C50.41 24.4896 54.3026 25.9352 57.5327 28.3812C60.7628 30.8272 63.1853 34.1636 64.4937 37.9684C65.8022 41.7732 65.9378 45.8754 64.8834 49.7563C64.7205 50.3572 64.3223 50.8696 63.7766 51.1808C63.2308 51.4919 62.5821 51.5764 61.9733 51.4157C61.3644 51.2549 60.8451 50.862 60.5298 50.3234C60.2144 49.7848 60.1288 49.1447 60.2918 48.5438C61.1001 45.5593 60.994 42.4054 59.9868 39.4804C58.9797 36.5554 57.1167 33.9906 54.6332 32.11C52.1498 30.2293 49.1572 29.1172 46.0335 28.9141C42.9099 28.711 39.7953 29.426 37.0833 30.9688C36.5374 31.2796 35.8887 31.3636 35.28 31.2025C34.6713 31.0413 34.1524 30.6481 33.8374 30.1094C33.5225 29.5707 33.4373 28.9306 33.6006 28.3299C33.7639 27.7292 34.1624 27.2171 34.7083 26.9063Z" fill="white"/>
<path fill-rule="evenodd" clip-rule="evenodd" d="M25.1133 36.5938C25.5586 36.1549 26.1623 35.9083 26.7916 35.9083C27.421 35.9083 28.0246 36.1549 28.47 36.5938L36.3866 44.4063C36.62 44.6208 36.8071 44.8796 36.9369 45.1671C37.0667 45.4546 37.1365 45.7649 37.1422 46.0796C37.1478 46.3943 37.0891 46.7069 36.9697 46.9988C36.8502 47.2906 36.6724 47.5557 36.4469 47.7783C36.2214 48.0008 35.9528 48.1763 35.657 48.2941C35.3613 48.412 35.0445 48.4699 34.7256 48.4644C34.4067 48.4588 34.0923 48.3899 33.8009 48.2618C33.5096 48.1337 33.2474 47.949 33.03 47.7188L26.7916 41.5625L20.5533 47.7188C20.1031 48.1328 19.5076 48.3582 18.8923 48.3474C18.277 48.3367 17.69 48.0907 17.2548 47.6613C16.8197 47.2319 16.5704 46.6526 16.5596 46.0454C16.5487 45.4382 16.7771 44.8506 17.1966 44.4063L25.1133 36.5938ZM53.6133 41.2813C54.0586 40.8424 54.6623 40.5958 55.2916 40.5958C55.921 40.5958 56.5246 40.8424 56.97 41.2813L63.2083 47.4375L69.4466 41.2813C69.6641 41.051 69.9263 40.8663 70.2176 40.7382C70.5089 40.6101 70.8234 40.5412 71.1423 40.5357C71.4612 40.5301 71.778 40.588 72.0737 40.7059C72.3694 40.8238 72.6381 40.9992 72.8636 41.2218C73.0891 41.4443 73.2669 41.7094 73.3864 42.0013C73.5058 42.2931 73.5645 42.6057 73.5588 42.9204C73.5532 43.2351 73.4834 43.5454 73.3536 43.8329C73.2238 44.1204 73.0366 44.3792 72.8033 44.5938L64.8866 52.4063C64.4413 52.8452 63.8377 53.0917 63.2083 53.0917C62.5789 53.0917 61.9753 52.8452 61.53 52.4063L53.6133 44.5938C53.1685 44.1543 52.9187 43.5586 52.9187 42.9375C52.9187 42.3164 53.1685 41.7207 53.6133 41.2813Z" fill="white"/>
</svg>
